<svg width="13" height="13" viewBox="0 0 13 13" fill="none" xmlns="http://www.w3.org/2000/svg">
<path d="M2.43584 12.3438C1.79834 12.3438 1.21396 12.1048 0.762402 11.6532C0.310839 11.2017 0.0717773 10.6173 0.0717773 9.97979C0.0717773 9.34229 0.310839 8.75791 0.762402 8.30635L7.50928 1.55947C8.73115 0.337598 10.7499 0.337598 11.9718 1.55947C12.5562 2.14385 12.9015 2.94072 12.9015 3.79072C12.9015 4.64072 12.5827 5.41104 11.9718 6.02198L6.9249 11.0689L6.39365 10.5376L11.4405 5.49073C12.3702 4.56104 12.3702 3.02041 11.4405 2.09072C10.5108 1.16104 8.97022 1.16104 8.04053 2.09072L1.29365 8.8376C0.974902 9.12978 0.815526 9.55479 0.815526 9.97979C0.815526 10.4048 0.974902 10.8298 1.29365 11.122C1.93115 11.7595 2.94053 11.7595 3.57803 11.122L8.6249 6.0751C8.94365 5.75635 8.94365 5.2251 8.6249 4.90635C8.30615 4.5876 7.7749 4.5876 7.45615 4.90635L4.08272 8.27979L3.55146 7.74854L6.9249 4.3751C7.53584 3.76416 8.51865 3.76416 9.12959 4.3751C9.74053 4.98604 9.74053 5.96885 9.12959 6.57978L4.08272 11.6267C3.65771 12.1048 3.07334 12.3438 2.43584 12.3438Z" fill="#040404"/>
</svg>
