<svg width="30" height="30" viewBox="0 0 30 30" fill="none" xmlns="http://www.w3.org/2000/svg">
<path d="M15 30C23.2843 30 30 23.2843 30 15C30 6.71573 23.2843 0 15 0C6.71573 0 0 6.71573 0 15C0 23.2843 6.71573 30 15 30Z" fill="#4944FF"/>
<path fill-rule="evenodd" clip-rule="evenodd" d="M14.4316 21.5801H15.6094C15.6094 21.5801 15.9668 21.5391 16.1484 21.3457C16.3183 21.1641 16.3125 20.8301 16.3125 20.8301C16.3125 20.8301 16.289 19.248 17.0215 19.0195C17.7422 18.791 18.6738 20.543 19.6582 21.2227C20.4023 21.7324 20.9648 21.6211 20.9648 21.6211L23.5957 21.5859C23.5957 21.5859 24.9726 21.5039 24.3164 20.4199C24.2637 20.332 23.9355 19.6172 22.3594 18.1582C20.7129 16.6289 20.9297 16.875 22.916 14.2266C24.1289 12.6152 24.6094 11.6309 24.457 11.209C24.3105 10.8047 23.4258 10.916 23.4258 10.916L20.4609 10.9336C20.4609 10.9336 20.2441 10.9043 20.0801 10.998C19.9219 11.0918 19.8164 11.3145 19.8164 11.3145C19.8164 11.3145 19.3476 12.5625 18.7207 13.623C17.4023 15.8613 16.875 15.9785 16.6582 15.8437C16.1543 15.5156 16.2832 14.543 16.2832 13.8457C16.2832 11.6777 16.6113 10.7695 15.6445 10.5352C15.3222 10.459 15.0879 10.4062 14.2617 10.4004C13.207 10.3887 12.3105 10.4004 11.8008 10.6523C11.4668 10.8164 11.2031 11.1855 11.3613 11.2031C11.5547 11.2266 12 11.3262 12.2344 11.6426C12.539 12.0527 12.5273 12.9844 12.5273 12.9844C12.5273 12.9844 12.7031 15.5391 12.1172 15.8555C11.7187 16.0723 11.168 15.627 9.99608 13.5996C9.39256 12.5566 8.94139 11.4082 8.94139 11.4082C8.94139 11.4082 8.8535 11.1914 8.69529 11.0801C8.50194 10.9395 8.23826 10.8984 8.23826 10.8984L5.42576 10.916C5.42576 10.916 5.00389 10.9277 4.84569 11.1094C4.71092 11.2734 4.83397 11.6133 4.83397 11.6133C4.83397 11.6133 7.03709 16.7695 9.53319 19.3652C11.8359 21.7383 14.4316 21.5801 14.4316 21.5801Z" fill="white"/>
</svg>
