<svg width="30" height="30" viewBox="0 0 30 30" fill="none" xmlns="http://www.w3.org/2000/svg">
<path d="M15 30C6.717 30 0 23.283 0 15C0 6.717 6.717 0 15 0C23.283 0 30 6.717 30 15C30 23.283 23.283 30 15 30Z" fill="#4944FF"/>
<path d="M24.546 10.173C24.318 9.309 23.643 8.631 22.785 8.4C21.231 7.98 15.003 7.98 15.003 7.98C15.003 7.98 8.77198 7.98 7.22098 8.4C6.36298 8.631 5.68798 9.309 5.45998 10.173C5.03998 11.736 5.03998 15 5.03998 15C5.03998 15 5.03998 18.264 5.45698 19.827C5.68498 20.691 6.35998 21.369 7.21798 21.6C8.77198 22.02 15 22.02 15 22.02C15 22.02 21.231 22.02 22.782 21.6C23.64 21.369 24.315 20.691 24.543 19.827C24.96 18.264 24.96 15 24.96 15C24.96 15 24.96 11.736 24.546 10.173ZM12.963 17.961V12.039L18.168 15L12.963 17.961Z" fill="white"/>
</svg>
