<svg width="6" height="6" viewBox="0 0 6 6" fill="none" xmlns="http://www.w3.org/2000/svg">
<path d="M2.95989 0.000272641C1.30324 0.0224465 -0.0217087 1.38359 0.000269522 3.04037C0.0224434 4.69643 1.38346 6.02177 3.04011 5.99973C4.69649 5.97743 6.02177 4.61628 5.99973 2.95963C5.97756 1.30344 4.61641 -0.021836 2.95989 0.000272641ZM3.29243 0.999986C3.59739 0.999986 3.68745 1.17699 3.68745 1.37922C3.68745 1.63207 3.48502 1.86581 3.13989 1.86581C2.85098 1.86581 2.71357 1.72044 2.72159 1.48038C2.72159 1.27807 2.89109 0.999986 3.29243 0.999986ZM2.51067 4.87499C2.30231 4.87499 2.14957 4.7486 2.29539 4.19237L2.53448 3.20596C2.57602 3.04787 2.583 2.98467 2.53448 2.98467C2.47194 2.98467 2.20142 3.09385 2.04163 3.20133L1.93742 3.03065C2.44435 2.60733 3.02733 2.35898 3.27724 2.35898C3.48561 2.35898 3.5203 2.60544 3.41622 2.98467L3.14237 4.02163C3.09385 4.20495 3.11472 4.26808 3.16311 4.26808C3.22578 4.26808 3.43063 4.19204 3.63189 4.03395L3.75 4.19204C3.25689 4.68508 2.71891 4.87499 2.51067 4.87499Z" fill="#4944FF"/>
</svg>
